<svg width="1433" height="233" viewBox="0 0 1433 233" fill="none" xmlns="http://www.w3.org/2000/svg">
<path d="M183.5 179C93.8126 180.883 12.0127 128.529 0.999972 39.5C-0.893733 24.191 0.999972 0 0.999972 0H1433V179C1384.37 197.551 1362.52 124.73 1310.5 126.5C1245.93 128.697 1237.27 211.86 1173 218.5C1070.18 229.124 1080.53 26.3196 978 39.5C899.223 49.6272 909.383 181.587 830 179C763.707 176.84 762.821 74.9713 696.5 74C614.1 72.7932 635.892 212.878 555.5 231C456.535 253.309 438.034 81.3387 337 90.5C268.088 96.7487 252.68 177.548 183.5 179Z" fill="#EBF2FA"/>
</svg>
